<?xml version="1.0" encoding="utf-8"?>
<!-- Generator: Adobe Illustrator 22.0.1, SVG Export Plug-In . SVG Version: 6.00 Build 0)  -->
<svg version="1.1" id="Layer_1" xmlns="http://www.w3.org/2000/svg" xmlns:xlink="http://www.w3.org/1999/xlink" x="0px" y="0px"
	 viewBox="0 0 300 73.1" style="enable-background:new 0 0 300 73.1;" xml:space="preserve">
<style type="text/css">
	.st0{fill:#FFFFFF;}
</style>
<g>
	<g>
		<path class="st0" d="M0,4h26.8v9.9H10.6v18.2h15.6V42H10.8v31.2H0.1V4H0z"/>
		<path class="st0" d="M44.2,49.3v7.8c0,4.2,0.9,8,5.1,8c4.2,0,4.8-3.8,4.8-7.7v-0.3h10.3v0.3c0,5.7-1.2,16.7-14.8,16.7
			C36,74.1,34,65.7,34,54.9V37.2c0-7.4,2.2-18.3,15.6-18.3c11.4,0,15.2,7.8,15.2,18.3c0,3.2,0,9,0,12.2
			C64.7,49.3,44.2,49.3,44.2,49.3z M54.5,40.9v-5.4c0-4.9-1.2-7.7-5-7.7c-3.5,0-5.1,2.4-5.1,7.7v5.4H54.5z"/>
		<path class="st0" d="M102,62.2c0,3.3,0,9,0.2,11h-9.8c-0.2-1.1-0.6-3.2-0.6-3.9C90,72.6,87,74.1,83,74.1
			c-8.1,0-11.4-7.5-11.4-15.6v-0.9c0-13.2,8.8-16.7,18.6-16.7c0.3,0,0.9,0,1.2,0V34c0-4.2-0.5-6.6-3.8-6.6c-3.2,0-3.9,2.4-3.9,5.7
			V34H73.2v-0.6c0-7.8,3-14.7,14.7-14.7c10.3,0,14,5.7,14,14.4v29.1C102,62.2,102,62.2,102,62.2z M91.5,48.9c-0.5,0-1.5,0-1.8,0
			c-4.8,0-8.1,1.8-8.1,8.5v0.9c0,3.8,1.3,6.4,4.7,6.4c3.6,0,5.1-2.4,5.1-9.6L91.5,48.9L91.5,48.9z"/>
		<path class="st0" d="M108.3,19.6h5.7V6.7h10.7v12.9h6.8v9.3h-6.8v31.7c0,2.5,0.3,4.5,3.6,4.5c0.9,0,2.2-0.2,3-0.3v8.1
			c-1.8,0.9-4.5,1.1-6.5,1.1c-6.8,0-10.7-2.1-10.7-11.4V28.9h-5.7L108.3,19.6L108.3,19.6z"/>
		<path class="st0" d="M169.5,57.6c0,7.8,0,12.8,0.1,15.6h-10.2c-0.2-1.1-0.5-3.6-0.5-5.1c-1.9,4.6-5.7,5.9-9.9,5.9
			c-5.1,0-10.7-2.4-10.7-14V19.6h10.6v37.7c0,4.9,1.5,7.2,4.6,7.2c3.5,0,5.1-2.1,5.1-9.1V19.6h10.6L169.5,57.6L169.5,57.6z"/>
		<path class="st0" d="M180.5,37.8c0-8.8,0-12.6-0.2-18.2h10.1c0.1,1.1,0.3,5.9,0.3,8.7c2.1-7.2,6.9-9.5,11.7-9.5v13.2
			c-6.1,0-11.4,1.5-11.4,12.6v28.7h-10.7L180.5,37.8L180.5,37.8z"/>
		<path class="st0" d="M219.1,49.3v7.8c0,4.2,0.9,8,5.1,8s4.8-3.8,4.8-7.7v-0.3h10.4v0.3c0,5.7-1.2,16.7-14.9,16.7
			c-13.6,0-15.6-8.4-15.6-19.2V37.2c0-7.4,2.2-18.3,15.6-18.3c11.4,0,15.2,7.8,15.2,18.3c0,3.2,0,9,0,12.2
			C239.6,49.3,219.1,49.3,219.1,49.3z M229.2,40.9v-5.4c0-4.9-1.2-7.7-5-7.7c-3.5,0-5.1,2.4-5.1,7.7v5.4H229.2z"/>
		<path class="st0" d="M279.1,1v57.3c0,8.1,0,12,0.1,14.8h-10.2c-0.1-1.4-0.5-4.2-0.5-5.1c-1.6,3.4-4.2,5.9-9.4,5.9
			c-9.6,0-11.4-7.7-11.4-18v-21c0-9.3,3.6-16.2,12.3-16.2c3.6,0,6.9,1,8.4,3.8V1H279.1z M258.6,35.7v21.2c0,4.9,1.2,7.6,4.8,7.6
			c4.4,0,5.2-3.9,5.2-10V37.9c0-5.7-0.6-9.6-5.1-9.6C259.8,28.3,258.6,31.2,258.6,35.7z"/>
		<path class="st0" d="M289.4,73.2V57.9H300v15.3C300,73.2,289.4,73.2,289.4,73.2z"/>
	</g>
</g>
</svg>
