<?xml version="1.0" encoding="utf-8"?>
<!-- Generator: Adobe Illustrator 22.0.1, SVG Export Plug-In . SVG Version: 6.00 Build 0)  -->
<svg version="1.1" id="Layer_1" xmlns="http://www.w3.org/2000/svg" xmlns:xlink="http://www.w3.org/1999/xlink" x="0px" y="0px"
	 viewBox="0 0 300 73.1" style="enable-background:new 0 0 300 73.1;" xml:space="preserve">
<g>
	<g>
		<path d="M0,3h26.8v9.9H10.6v18.2h15.6V41H10.6v31.2H0V3z"/>
		<path d="M44.2,48.3v7.8c0,4.2,0.9,8,5.1,8s4.8-3.8,4.8-7.7v-0.3h10.3v0.3c0,5.7-1.2,16.7-14.9,16.7S34,64.7,34,53.9V36.2
			c0-7.4,2.2-18.3,15.6-18.3c11.4,0,15.1,7.8,15.1,18.3c0,3.2,0,9,0,12.2C64.6,48.3,44.2,48.3,44.2,48.3z M54.4,39.9v-5.4
			c0-4.9-1.2-7.7-4.9-7.7c-3.4,0-5.1,2.4-5.1,7.7v5.4H54.4z"/>
		<path d="M102,61.2c0,3.3,0,9,0.1,10.9h-9.8c-0.1-1-0.6-3.1-0.6-3.9c-1.8,3.3-4.8,4.8-8.8,4.8c-8.1,0-11.4-7.5-11.4-15.6v-0.9
			c0-13.2,8.8-16.7,18.6-16.7c0.3,0,0.9,0,1.2,0V33c0-4.2-0.5-6.6-3.8-6.6c-3.2,0-3.9,2.4-3.9,5.7V33H73.2v-0.6
			c0-7.8,3-14.7,14.7-14.7c10.4,0,14,5.7,14,14.4L102,61.2L102,61.2z M91.5,47.8c-0.4,0-1.5,0-1.8,0c-4.8,0-8.1,1.8-8.1,8.5v0.9
			c0,3.8,1.3,6.4,4.6,6.4c3.6,0,5.1-2.4,5.1-9.6L91.5,47.8L91.5,47.8z"/>
		<path d="M108.3,18.6h5.7V5.7h10.6v12.9h6.8v9.3h-6.8v31.7c0,2.5,0.3,4.5,3.6,4.5c0.9,0,2.2-0.2,3-0.3v8.1c-1.8,0.9-4.5,1-6.5,1
			c-6.8,0-10.7-2.1-10.7-11.4V27.9h-5.7L108.3,18.6L108.3,18.6z"/>
		<path d="M169.5,56.6c0,7.8,0,12.8,0.1,15.6h-10.2c-0.2-1-0.5-3.6-0.5-5.1c-1.9,4.7-5.7,5.8-9.9,5.8c-5.1,0-10.6-2.4-10.6-13.9
			V18.6h10.6v37.7c0,4.9,1.5,7.2,4.6,7.2c3.5,0,5.1-2.1,5.1-9.1V18.6h10.6L169.5,56.6L169.5,56.6z"/>
		<path d="M180.5,36.8c0-8.8,0-12.6-0.2-18.2h10.1c0.1,1.1,0.3,5.9,0.3,8.7c2.1-7.2,6.9-9.5,11.7-9.5v13.2
			c-6.2,0-11.4,1.5-11.4,12.6v28.7h-10.7L180.5,36.8L180.5,36.8z"/>
		<path d="M219.2,48.3v7.8c0,4.2,0.9,8,5.1,8c4.2,0,4.8-3.8,4.8-7.7v-0.3h10.4v0.3c0,5.7-1.2,16.7-14.9,16.7S209,64.7,209,53.9V36.2
			c0-7.4,2.2-18.3,15.6-18.3c11.4,0,15.2,7.8,15.2,18.3c0,3.2,0,9,0,12.2C239.5,48.3,219.2,48.3,219.2,48.3z M229.2,39.9v-5.4
			c0-4.9-1.2-7.7-5-7.7c-3.5,0-5.1,2.4-5.1,7.7v5.4H229.2z"/>
		<path d="M279.2,0v57.3c0,8.1,0,12,0.1,14.8h-10.2c-0.1-1.3-0.4-4.2-0.4-5.1c-1.7,3.4-4.2,5.8-9.5,5.8c-9.6,0-11.4-7.6-11.4-18v-21
			c0-9.3,3.6-16.2,12.3-16.2c3.6,0,6.9,1,8.4,3.8V0H279.2z M258.6,34.7v21.2c0,4.9,1.2,7.6,4.8,7.6c4.3,0,5.2-3.9,5.2-10V36.9
			c0-5.7-0.6-9.6-5.1-9.6C259.8,27.3,258.6,30.2,258.6,34.7z"/>
		<path d="M289.3,72.1V56.9H300v15.3C300,72.1,289.3,72.1,289.3,72.1z"/>
	</g>
</g>
</svg>
